<mxfile host="app.diagrams.net" modified="2023-04-11T04:42:10.269Z" agent="Mozilla/5.0 (Windows NT 10.0; Win64; x64) AppleWebKit/537.36 (KHTML, like Gecko) Chrome/112.0.0.0 Safari/537.36" etag="sTnGXsqVbUtGmb_l85rM" version="21.1.1" type="device">
  <diagram name="Page-1" id="099fd60b-425b-db50-ffb0-6b813814b670">
    <mxGraphModel dx="874" dy="419" grid="1" gridSize="10" guides="1" tooltips="1" connect="1" arrows="1" fold="1" page="1" pageScale="1" pageWidth="850" pageHeight="1100" background="none" math="0" shadow="0">
      <root>
        <mxCell id="0" />
        <mxCell id="1" parent="0" />
        <mxCell id="1OgX303Jgz2acgdSJ7Ac-26" value="BUS 3" style="edgeStyle=orthogonalEdgeStyle;rounded=0;orthogonalLoop=1;jettySize=auto;html=1;exitX=1;exitY=0.25;exitDx=0;exitDy=0;entryX=0;entryY=0.5;entryDx=0;entryDy=0;" edge="1" parent="1" source="1OgX303Jgz2acgdSJ7Ac-2" target="1OgX303Jgz2acgdSJ7Ac-25">
          <mxGeometry relative="1" as="geometry" />
        </mxCell>
        <mxCell id="1OgX303Jgz2acgdSJ7Ac-30" style="edgeStyle=orthogonalEdgeStyle;rounded=0;orthogonalLoop=1;jettySize=auto;html=1;exitX=1;exitY=0.75;exitDx=0;exitDy=0;entryX=0;entryY=0.5;entryDx=0;entryDy=0;entryPerimeter=0;" edge="1" parent="1" source="1OgX303Jgz2acgdSJ7Ac-2" target="1OgX303Jgz2acgdSJ7Ac-29">
          <mxGeometry relative="1" as="geometry">
            <mxPoint x="430" y="560" as="targetPoint" />
          </mxGeometry>
        </mxCell>
        <mxCell id="1OgX303Jgz2acgdSJ7Ac-38" style="edgeStyle=orthogonalEdgeStyle;rounded=0;orthogonalLoop=1;jettySize=auto;html=1;exitX=0.25;exitY=0;exitDx=0;exitDy=0;entryX=0;entryY=0.5;entryDx=0;entryDy=0;" edge="1" parent="1" source="1OgX303Jgz2acgdSJ7Ac-2" target="1OgX303Jgz2acgdSJ7Ac-36">
          <mxGeometry relative="1" as="geometry">
            <mxPoint x="250" y="270" as="targetPoint" />
            <Array as="points">
              <mxPoint x="305" y="290" />
              <mxPoint x="255" y="290" />
              <mxPoint x="255" y="160" />
            </Array>
          </mxGeometry>
        </mxCell>
        <mxCell id="1OgX303Jgz2acgdSJ7Ac-39" value="BUS 3" style="edgeLabel;html=1;align=center;verticalAlign=middle;resizable=0;points=[];" vertex="1" connectable="0" parent="1OgX303Jgz2acgdSJ7Ac-38">
          <mxGeometry x="0.0696" y="-1" relative="1" as="geometry">
            <mxPoint as="offset" />
          </mxGeometry>
        </mxCell>
        <mxCell id="1OgX303Jgz2acgdSJ7Ac-2" value="Microcontroller&lt;br&gt;ATmega382p" style="rounded=0;whiteSpace=wrap;html=1;fillColor=#dae8fc;strokeColor=#6c8ebf;" vertex="1" parent="1">
          <mxGeometry x="275" y="310" width="120" height="210" as="geometry" />
        </mxCell>
        <mxCell id="1OgX303Jgz2acgdSJ7Ac-3" value="Keypad 3x4" style="rounded=0;whiteSpace=wrap;html=1;fillColor=#e1d5e7;strokeColor=#9673a6;" vertex="1" parent="1">
          <mxGeometry x="40" y="310" width="120" height="60" as="geometry" />
        </mxCell>
        <mxCell id="1OgX303Jgz2acgdSJ7Ac-4" value="Keypad 3x4" style="rounded=0;whiteSpace=wrap;html=1;fillColor=#e1d5e7;strokeColor=#9673a6;" vertex="1" parent="1">
          <mxGeometry x="40" y="390" width="120" height="60" as="geometry" />
        </mxCell>
        <mxCell id="1OgX303Jgz2acgdSJ7Ac-5" value="Switch 3 position" style="rounded=0;whiteSpace=wrap;html=1;fillColor=#e1d5e7;strokeColor=#9673a6;" vertex="1" parent="1">
          <mxGeometry x="40" y="460" width="120" height="60" as="geometry" />
        </mxCell>
        <mxCell id="1OgX303Jgz2acgdSJ7Ac-6" value="keypad outside" style="text;strokeColor=none;fillColor=none;align=left;verticalAlign=middle;spacingLeft=4;spacingRight=4;overflow=hidden;points=[[0,0.5],[1,0.5]];portConstraint=eastwest;rotatable=0;whiteSpace=wrap;html=1;" vertex="1" parent="1">
          <mxGeometry x="40" y="290" width="110" height="30" as="geometry" />
        </mxCell>
        <mxCell id="1OgX303Jgz2acgdSJ7Ac-7" value="keypad inside" style="text;strokeColor=none;fillColor=none;align=left;verticalAlign=middle;spacingLeft=4;spacingRight=4;overflow=hidden;points=[[0,0.5],[1,0.5]];portConstraint=eastwest;rotatable=0;whiteSpace=wrap;html=1;" vertex="1" parent="1">
          <mxGeometry x="40" y="370" width="110" height="30" as="geometry" />
        </mxCell>
        <mxCell id="1OgX303Jgz2acgdSJ7Ac-21" value="BUS 7" style="endArrow=classic;startArrow=classic;html=1;rounded=0;entryX=0;entryY=0.143;entryDx=0;entryDy=0;entryPerimeter=0;strokeColor=#000000;endFill=1;" edge="1" parent="1" target="1OgX303Jgz2acgdSJ7Ac-2">
          <mxGeometry width="50" height="50" relative="1" as="geometry">
            <mxPoint x="160" y="340" as="sourcePoint" />
            <mxPoint x="210" y="290" as="targetPoint" />
          </mxGeometry>
        </mxCell>
        <mxCell id="1OgX303Jgz2acgdSJ7Ac-22" value="BUS 7" style="endArrow=classic;startArrow=classic;html=1;rounded=0;strokeColor=#000000;endFill=1;entryX=-0.006;entryY=0.525;entryDx=0;entryDy=0;entryPerimeter=0;" edge="1" parent="1" target="1OgX303Jgz2acgdSJ7Ac-2">
          <mxGeometry width="50" height="50" relative="1" as="geometry">
            <mxPoint x="160" y="419.72" as="sourcePoint" />
            <mxPoint x="270" y="420" as="targetPoint" />
          </mxGeometry>
        </mxCell>
        <mxCell id="1OgX303Jgz2acgdSJ7Ac-23" value="BUS 2" style="endArrow=classic;startArrow=classic;html=1;rounded=0;strokeColor=#000000;endFill=1;entryX=-0.006;entryY=0.863;entryDx=0;entryDy=0;entryPerimeter=0;" edge="1" parent="1" target="1OgX303Jgz2acgdSJ7Ac-2">
          <mxGeometry width="50" height="50" relative="1" as="geometry">
            <mxPoint x="160" y="489.72" as="sourcePoint" />
            <mxPoint x="270" y="490" as="targetPoint" />
          </mxGeometry>
        </mxCell>
        <mxCell id="1OgX303Jgz2acgdSJ7Ac-50" value="BUS 8" style="edgeStyle=orthogonalEdgeStyle;rounded=0;orthogonalLoop=1;jettySize=auto;html=1;exitX=1;exitY=0.5;exitDx=0;exitDy=0;entryX=0.023;entryY=0.516;entryDx=0;entryDy=0;entryPerimeter=0;" edge="1" parent="1" source="1OgX303Jgz2acgdSJ7Ac-25" target="1OgX303Jgz2acgdSJ7Ac-49">
          <mxGeometry relative="1" as="geometry" />
        </mxCell>
        <mxCell id="1OgX303Jgz2acgdSJ7Ac-25" value="IC &lt;br&gt;74HC595&lt;br&gt;shift bit register" style="rounded=0;whiteSpace=wrap;html=1;fillColor=#dae8fc;strokeColor=#6c8ebf;" vertex="1" parent="1">
          <mxGeometry x="460" y="312" width="70" height="100" as="geometry" />
        </mxCell>
        <mxCell id="1OgX303Jgz2acgdSJ7Ac-29" value="buzzer&lt;br&gt;5v" style="shape=or;whiteSpace=wrap;html=1;fillColor=#fff2cc;strokeColor=#d6b656;" vertex="1" parent="1">
          <mxGeometry x="460" y="427" width="60" height="80" as="geometry" />
        </mxCell>
        <mxCell id="1OgX303Jgz2acgdSJ7Ac-31" value="Control&amp;nbsp;notification light" style="text;strokeColor=none;fillColor=none;align=left;verticalAlign=middle;spacingLeft=4;spacingRight=4;overflow=hidden;points=[[0,0.5],[1,0.5]];portConstraint=eastwest;rotatable=0;whiteSpace=wrap;html=1;" vertex="1" parent="1">
          <mxGeometry x="425" y="290" width="155" height="30" as="geometry" />
        </mxCell>
        <mxCell id="1OgX303Jgz2acgdSJ7Ac-33" value="BUS 3" style="edgeStyle=orthogonalEdgeStyle;rounded=0;orthogonalLoop=1;jettySize=auto;html=1;exitX=0.5;exitY=0;exitDx=0;exitDy=0;entryX=1;entryY=0.5;entryDx=0;entryDy=0;" edge="1" parent="1" target="1OgX303Jgz2acgdSJ7Ac-34">
          <mxGeometry x="-0.3333" relative="1" as="geometry">
            <mxPoint x="335" y="310" as="sourcePoint" />
            <mxPoint as="offset" />
          </mxGeometry>
        </mxCell>
        <mxCell id="1OgX303Jgz2acgdSJ7Ac-37" value="BUS 8" style="edgeStyle=orthogonalEdgeStyle;rounded=0;orthogonalLoop=1;jettySize=auto;html=1;exitX=0;exitY=0.5;exitDx=0;exitDy=0;entryX=0.5;entryY=1;entryDx=0;entryDy=0;" edge="1" parent="1" source="1OgX303Jgz2acgdSJ7Ac-34" target="1OgX303Jgz2acgdSJ7Ac-36">
          <mxGeometry x="-0.3333" relative="1" as="geometry">
            <mxPoint as="offset" />
          </mxGeometry>
        </mxCell>
        <mxCell id="1OgX303Jgz2acgdSJ7Ac-34" value="IC &lt;br&gt;74HC595&lt;br&gt;shift bit register" style="rounded=0;whiteSpace=wrap;html=1;direction=south;fillColor=#dae8fc;strokeColor=#6c8ebf;" vertex="1" parent="1">
          <mxGeometry x="285" y="210" width="100" height="70" as="geometry" />
        </mxCell>
        <mxCell id="1OgX303Jgz2acgdSJ7Ac-35" value="Control&amp;nbsp;&lt;br&gt;notification&lt;br&gt;&amp;nbsp;light" style="text;strokeColor=none;fillColor=none;align=left;verticalAlign=middle;spacingLeft=4;spacingRight=4;overflow=hidden;points=[[0,0.5],[1,0.5]];portConstraint=eastwest;rotatable=0;whiteSpace=wrap;html=1;direction=east;" vertex="1" parent="1">
          <mxGeometry x="385" y="230" width="70" height="50" as="geometry" />
        </mxCell>
        <mxCell id="1OgX303Jgz2acgdSJ7Ac-36" value="LCD 16X2" style="rounded=1;whiteSpace=wrap;html=1;fillColor=#d5e8d4;strokeColor=#82b366;" vertex="1" parent="1">
          <mxGeometry x="275" y="130" width="120" height="60" as="geometry" />
        </mxCell>
        <mxCell id="1OgX303Jgz2acgdSJ7Ac-40" value="Control bit" style="text;html=1;strokeColor=none;fillColor=none;align=center;verticalAlign=middle;whiteSpace=wrap;rounded=0;direction=east;flipH=1;flipV=1;labelPosition=center;verticalLabelPosition=middle;rotation=-90;" vertex="1" parent="1">
          <mxGeometry x="219" y="181" width="60" height="30" as="geometry" />
        </mxCell>
        <mxCell id="1OgX303Jgz2acgdSJ7Ac-49" value="Notification light" style="verticalLabelPosition=bottom;dashed=0;shadow=0;html=1;align=center;verticalAlign=top;shape=mxgraph.cabinets.contactor_32_125a;" vertex="1" parent="1">
          <mxGeometry x="585" y="279" width="95" height="160" as="geometry" />
        </mxCell>
        <mxCell id="1OgX303Jgz2acgdSJ7Ac-52" value="" style="shape=sumEllipse;perimeter=ellipsePerimeter;whiteSpace=wrap;html=1;backgroundOutline=1;" vertex="1" parent="1">
          <mxGeometry x="593" y="410" width="20" height="20" as="geometry" />
        </mxCell>
        <mxCell id="1OgX303Jgz2acgdSJ7Ac-54" value="" style="shape=sumEllipse;perimeter=ellipsePerimeter;whiteSpace=wrap;html=1;backgroundOutline=1;" vertex="1" parent="1">
          <mxGeometry x="653" y="410" width="20" height="20" as="geometry" />
        </mxCell>
        <mxCell id="1OgX303Jgz2acgdSJ7Ac-55" value="" style="shape=sumEllipse;perimeter=ellipsePerimeter;whiteSpace=wrap;html=1;backgroundOutline=1;fillColor=#f8cecc;strokeColor=#b85450;labelPosition=center;verticalLabelPosition=bottom;align=center;verticalAlign=top;" vertex="1" parent="1">
          <mxGeometry x="592" y="287" width="20" height="20" as="geometry" />
        </mxCell>
        <mxCell id="1OgX303Jgz2acgdSJ7Ac-56" value="" style="shape=sumEllipse;perimeter=ellipsePerimeter;whiteSpace=wrap;html=1;backgroundOutline=1;fillColor=#d5e8d4;strokeColor=#82b366;" vertex="1" parent="1">
          <mxGeometry x="652" y="287" width="20" height="20" as="geometry" />
        </mxCell>
        <mxCell id="1OgX303Jgz2acgdSJ7Ac-57" value="" style="shape=sumEllipse;perimeter=ellipsePerimeter;whiteSpace=wrap;html=1;backgroundOutline=1;fillColor=#f8cecc;strokeColor=#b85450;" vertex="1" parent="1">
          <mxGeometry x="593" y="320" width="20" height="20" as="geometry" />
        </mxCell>
        <mxCell id="1OgX303Jgz2acgdSJ7Ac-58" value="" style="shape=sumEllipse;perimeter=ellipsePerimeter;whiteSpace=wrap;html=1;backgroundOutline=1;fillColor=#dae8fc;strokeColor=#6c8ebf;" vertex="1" parent="1">
          <mxGeometry x="653" y="320" width="20" height="20" as="geometry" />
        </mxCell>
        <mxCell id="1OgX303Jgz2acgdSJ7Ac-59" value="" style="shape=sumEllipse;perimeter=ellipsePerimeter;whiteSpace=wrap;html=1;backgroundOutline=1;fillColor=#f8cecc;strokeColor=#b85450;" vertex="1" parent="1">
          <mxGeometry x="592" y="378" width="20" height="20" as="geometry" />
        </mxCell>
        <mxCell id="1OgX303Jgz2acgdSJ7Ac-60" value="" style="shape=sumEllipse;perimeter=ellipsePerimeter;whiteSpace=wrap;html=1;backgroundOutline=1;fillColor=#fff2cc;strokeColor=#d6b656;" vertex="1" parent="1">
          <mxGeometry x="652" y="378" width="20" height="20" as="geometry" />
        </mxCell>
        <mxCell id="1OgX303Jgz2acgdSJ7Ac-61" value="Notification buzzer" style="text;strokeColor=none;fillColor=none;align=left;verticalAlign=middle;spacingLeft=4;spacingRight=4;overflow=hidden;points=[[0,0.5],[1,0.5]];portConstraint=eastwest;rotatable=0;whiteSpace=wrap;html=1;" vertex="1" parent="1">
          <mxGeometry x="440" y="500" width="155" height="30" as="geometry" />
        </mxCell>
        <mxCell id="1OgX303Jgz2acgdSJ7Ac-62" value="denied" style="text;strokeColor=none;fillColor=none;align=left;verticalAlign=middle;spacingLeft=4;spacingRight=4;overflow=hidden;points=[[0,0.5],[1,0.5]];portConstraint=eastwest;rotatable=0;whiteSpace=wrap;html=1;direction=east;" vertex="1" parent="1">
          <mxGeometry x="580" y="300" width="50" height="17" as="geometry" />
        </mxCell>
        <mxCell id="1OgX303Jgz2acgdSJ7Ac-63" value="allow" style="text;strokeColor=none;fillColor=none;align=left;verticalAlign=middle;spacingLeft=4;spacingRight=4;overflow=hidden;points=[[0,0.5],[1,0.5]];portConstraint=eastwest;rotatable=0;whiteSpace=wrap;html=1;direction=east;" vertex="1" parent="1">
          <mxGeometry x="642" y="300" width="50" height="17" as="geometry" />
        </mxCell>
        <mxCell id="1OgX303Jgz2acgdSJ7Ac-64" value="lock" style="text;strokeColor=none;fillColor=none;align=left;verticalAlign=middle;spacingLeft=4;spacingRight=4;overflow=hidden;points=[[0,0.5],[1,0.5]];portConstraint=eastwest;rotatable=0;whiteSpace=wrap;html=1;direction=east;" vertex="1" parent="1">
          <mxGeometry x="586" y="335" width="50" height="17" as="geometry" />
        </mxCell>
        <mxCell id="1OgX303Jgz2acgdSJ7Ac-65" value="unlock" style="text;strokeColor=none;fillColor=none;align=left;verticalAlign=middle;spacingLeft=4;spacingRight=4;overflow=hidden;points=[[0,0.5],[1,0.5]];portConstraint=eastwest;rotatable=0;whiteSpace=wrap;html=1;direction=east;" vertex="1" parent="1">
          <mxGeometry x="638" y="335" width="50" height="17" as="geometry" />
        </mxCell>
        <mxCell id="1OgX303Jgz2acgdSJ7Ac-66" value="fail" style="text;strokeColor=none;fillColor=none;align=left;verticalAlign=middle;spacingLeft=4;spacingRight=4;overflow=hidden;points=[[0,0.5],[1,0.5]];portConstraint=eastwest;rotatable=0;whiteSpace=wrap;html=1;direction=east;" vertex="1" parent="1">
          <mxGeometry x="588" y="362" width="50" height="17" as="geometry" />
        </mxCell>
        <mxCell id="1OgX303Jgz2acgdSJ7Ac-67" value="open" style="text;strokeColor=none;fillColor=none;align=left;verticalAlign=middle;spacingLeft=4;spacingRight=4;overflow=hidden;points=[[0,0.5],[1,0.5]];portConstraint=eastwest;rotatable=0;whiteSpace=wrap;html=1;direction=east;" vertex="1" parent="1">
          <mxGeometry x="642" y="362" width="50" height="17" as="geometry" />
        </mxCell>
      </root>
    </mxGraphModel>
  </diagram>
</mxfile>
